<?xml version="1.0" encoding="utf-8" ?><svg xmlns="http://www.w3.org/2000/svg" xmlns:xlink="http://www.w3.org/1999/xlink" width="800" height="800" viewBox="0 0 800 800"><path fill="#1A4731" d="M332.736 247.401C335.5 242.82 337.86 238.74 341.567 234.807C356.735 218.713 379.722 216.477 398.271 227.831C407.969 233.723 414.909 243.248 417.543 254.286C421.896 272.645 418.511 292.247 415.718 310.542C415.488 312.047 415.515 312.86 416.656 313.829C418.474 310.405 420.353 305.397 422.179 301.732C425.868 294.331 429.199 289.323 434.385 283.061C448.81 264.928 452.985 255.444 477.982 251.678C510.682 246.752 535.92 279.447 525.57 310.012L524.868 312.099C539.963 316.53 549.438 321.206 557.39 335.639C562.857 345.677 564.147 357.464 560.982 368.447C558.187 378.117 552.809 384.898 545.94 391.941C545.063 392.84 544.477 394.492 543.481 395.618C534.357 409.487 524.315 417.21 507.455 418.711C506.013 418.928 504.464 418.966 503.415 419.889C503.737 421.048 503.926 420.962 505.356 421.792C516.503 428.26 525.194 435.917 529.093 448.64C533.052 461.561 533.492 474.503 527.325 486.835C523.725 494.034 518.778 497.085 514.492 503.325C514.047 503.972 513.577 504.894 513.12 505.508C503.494 521.652 482.75 531.249 464.343 526.366C462.236 526.982 456.359 533.984 454.144 536.125C438.262 569.457 393.155 570.642 374.27 539.797C365.066 524.764 367.203 492.668 371.106 475.521C371.123 473.471 371.223 472.094 370.809 470.069C368.132 473.905 364.069 484.199 360.417 489.997C356.124 496.811 351.108 501.084 347.812 506.212C342.898 513.51 337.511 520.551 329.798 525.078C318.978 531.286 303.621 533.225 291.663 530.106C272.394 525.081 258.973 505.981 259.762 486.264C259.993 480.492 261.121 476.17 262.578 470.614C252.29 468.167 243.643 464.267 236.316 456.283C228.483 447.785 224.328 436.534 224.758 424.984C225.389 410.899 231.474 400.685 241.696 391.387C243.988 387.771 246.219 384.03 248.9 380.701C255.568 372.366 265.071 366.776 275.597 365C278.889 364.436 281.876 364.409 285.162 364.06L285.514 363.449C263.467 352.228 252.925 334.148 255.975 309.059C257.364 297.638 263.38 290.121 271.5 282.523C275.245 276.774 276.295 273.381 281.665 268.248C289.977 260.302 301.573 255.624 313.067 255.417C315.959 255.365 320.661 256.565 323.545 256.562L324.193 256.555C327.13 253.209 329.55 250.54 332.736 247.401Z"/><path fill="#C2FE73" d="M241.696 391.387C242.162 393.381 239.141 400.609 238.804 403.409C235.819 428.172 252.637 448.848 276.673 453.264C274.608 459.469 273.403 464.134 273.437 470.767C273.529 489.043 285.504 506.605 303.051 512.317C315.112 516.243 330.478 513.872 341.744 508.409C343.278 507.668 347.108 504.723 347.88 504.539C347.894 505.322 347.923 505.442 347.812 506.212C342.898 513.51 337.511 520.551 329.798 525.078C318.978 531.286 303.621 533.225 291.663 530.106C272.394 525.081 258.973 505.981 259.762 486.264C259.993 480.492 261.121 476.17 262.578 470.614C252.29 468.167 243.643 464.267 236.316 456.283C228.483 447.785 224.328 436.534 224.758 424.984C225.389 410.899 231.474 400.685 241.696 391.387Z"/><path fill="#C2FE73" d="M371.106 475.521C371.621 473.028 372.121 470.553 372.654 468.022C375.665 453.722 381.824 440.161 385.582 426.002C385.884 424.866 386.182 424.366 387.073 423.74C388.9 423.623 390.312 424.386 391.861 425.349C385.66 451.088 380.617 474.052 381.893 501.115C383.415 533.362 417.503 555.375 446.76 539.791C448.121 539.066 452.959 536.36 454.144 536.125C438.262 569.457 393.155 570.642 374.27 539.797C365.066 524.764 367.203 492.668 371.106 475.521Z"/><path fill="#C2FE73" d="M271.5 282.523C272.201 284.234 269.618 292.546 269.383 295.361C268.874 301.466 269.647 307.813 271.193 313.725C277.15 336.502 296.085 345.607 316.19 354.029C325.456 357.823 334.888 361.2 344.457 364.15C348.809 365.525 353.272 366.781 357.607 368.201C359.147 368.705 359.235 368.78 359.725 369.868C359.619 371.764 359.103 372.625 358.36 374.345C338.353 369.551 318.572 364.952 297.937 364.221C294.45 364.097 288.683 364.419 285.514 363.449C263.467 352.228 252.925 334.148 255.975 309.059C257.364 297.638 263.38 290.121 271.5 282.523Z"/><path fill="#C2FE73" d="M507.455 418.711C505.59 418.686 501.283 419.096 499.759 418.567C495.95 417.258 492.349 415.354 488.686 413.671C476.972 408.291 464.514 404.614 452.351 400.394C449.621 399.447 446.762 399.066 444.047 398.131C442.431 397.575 441.99 397.082 441.338 395.59C441.429 390.52 444.26 391.789 447.419 392.54C474.228 398.922 503.48 405.515 530.898 399.255C533.605 398.637 536.165 397.181 538.649 396.075C540.375 395.306 542.948 392.994 544.415 392.731C544.114 393.757 543.829 394.614 543.481 395.618C534.357 409.487 524.315 417.21 507.455 418.711Z"/><path fill="#C2FE73" d="M470.965 506.687C486.758 512.886 501.364 510.198 515.102 500.765C514.343 502.389 513.772 503.848 513.12 505.508C503.494 521.652 482.75 531.249 464.343 526.366C463.857 526.137 463.861 526.064 463.447 525.693C467.83 518.391 469.233 514.902 470.965 506.687Z"/><path fill="#C2FE73" d="M434.385 283.061L438.646 279.16C431.544 294.28 427.713 301.897 422.089 318.215C420.73 322.094 419.488 326.013 418.367 329.968C417.435 333.351 416.436 340.666 413.116 341.989C411.656 342.078 411.269 341.719 409.985 341.027C408.277 338.519 413.27 323.486 414.397 320.061C414.843 318.706 416.529 315.019 416.656 313.829C418.474 310.405 420.353 305.397 422.179 301.732C425.868 294.331 429.199 289.323 434.385 283.061Z"/><path fill="#C2FE73" d="M332.736 247.401C333.229 248.687 330.638 256.165 330.236 259.083C328.862 258.588 325.062 257.387 324.193 256.555C327.13 253.209 329.55 250.54 332.736 247.401Z"/></svg>
