<?xml version="1.0" encoding="utf-8" ?><svg xmlns="http://www.w3.org/2000/svg" xmlns:xlink="http://www.w3.org/1999/xlink" width="1244" height="1122" viewBox="0 0 1244 1122"><clipPath id="cl_3"><rect x="-0.00018310547" width="1243.9998" height="1122"/></clipPath><g clip-path="url(#cl_3)"><path fill="#3F2F83" transform="matrix(2.2952 0 0 2.29448 -941.033 -376.294)" d="M606.257 379.12C635.678 379.804 666.029 379.302 695.549 379.243L847.012 379.098L901.091 379.128C908.763 379.126 916.645 378.996 924.279 378.928C934.705 378.409 934.521 386.837 933.996 394.889C933.37 407.362 933.376 421.932 917.527 423.901C873.828 429.329 839.607 440.636 806.084 471.079C768.277 505.412 773.846 547.246 816.895 573.819C822.691 577.396 831.934 581.278 837.09 586.177C843.031 594.293 840.865 615.914 840.604 625.697C821.45 625.99 792.829 627.616 774.019 624.037C771.348 623.528 759.721 616.904 756.215 615.272C750.912 612.802 747.364 611.84 741.603 610.178C714.728 603.421 694.184 605.119 668.206 616.167C663.073 618.35 654.396 624.39 649.734 625.108C641.993 626.301 631.249 625.953 623.321 625.897L585.296 625.653C584.839 615.36 584.569 605.518 585.232 595.209C586.031 582.789 599.283 579.682 608.988 574.099C613.416 571.556 617.641 568.672 621.622 565.474C633.491 556.003 643.872 542.871 645.116 527.365C647.542 497.12 622.289 494.244 600.458 492.355L600.208 483.986C591.926 482.628 581.364 482.096 572.776 481.507C521.917 478.016 436.58 452.502 419.078 398.927C448.587 398.326 478.573 398.998 508.117 398.836C524.195 398.748 541.292 399.863 557.228 398.496C558.704 396.101 560.35 393.745 561.936 391.416C572.433 388.759 589.136 389.742 600.229 390.015C600.244 387.051 599.783 384.093 601.229 381.591C603.096 379.69 603.749 379.662 606.257 379.12ZM626.248 399.198C660.787 400.298 705.568 399.455 740.266 398.323C786.505 397.932 834.305 396.633 880.435 392.992C886.657 392.501 892.847 392.401 899.038 391.581C889.709 389.694 853.898 390.241 842.921 390.492C823.522 390.934 801.773 389.723 782.817 390.175C748.18 390.601 713.54 390.7 678.901 390.473C664.568 390.458 650.225 390.371 635.894 390.522C627.197 390.614 627.035 391.176 626.248 399.198ZM559.108 432.772C560.59 423.815 558.689 418.414 558.223 409.877C546.774 409.19 533.31 409.39 521.689 409.733C497.504 410.447 472.728 408.903 448.694 409.434C465.423 419.122 532.2 420.553 552.712 422.398C553.83 424.595 557.054 431.724 558.611 432.766L559.108 432.772ZM615.818 463.581C619.054 441.206 622.921 413.595 623.795 391.093L616.607 390.64L614.329 391.186C613.446 394.696 613.551 465.471 614.307 468.723C615.583 467.379 615.55 465.533 615.818 463.581ZM743.034 554.138C747.68 558.551 753.633 565.087 759.928 565.992C756.617 562.473 747.578 555.328 743.034 554.138ZM682.517 553.542C678.611 556.095 667.868 562.604 665.903 566.078C666.371 566.458 667.007 567.026 667.511 567.302C670.649 566.108 681.818 556.703 682.631 553.804L682.436 554.968L682.877 553.777L682.517 553.542ZM763.649 572.91C779.946 589.079 780.186 594.627 804.207 588.172L805.654 587.513C804.152 584.929 787.973 583.938 784.291 582.337C775.056 578.322 774.494 572.131 763.649 572.91ZM645.203 613.186C645.691 605.596 644.676 595.632 646.593 588.935C647.666 585.19 659.867 578.262 659.825 574.4C657.522 573.776 656.791 573.919 654.494 574.104L651.923 575.86C652.08 576.844 652.257 577.824 652.454 578.801C646.761 584.767 616.141 584.355 612.804 588.364C615.008 590.818 633.113 590.49 637.484 590.643L639.013 590.97C640.528 593.636 642.897 607.43 645.203 613.186ZM571.668 401.109C571.584 405.971 570.827 415.071 573.782 418.489C576.634 416.635 576.742 412.316 577.278 409.046L590.734 409.205C594.749 409.23 603.871 408.851 600.525 402.247C596.284 399.653 577.507 400.615 571.668 401.109Z"/><path fill="#FEFEFE" fill-opacity="0.027450981" transform="matrix(2.2952 0 0 2.29448 -941.033 -376.294)" d="M743.034 554.138C747.578 555.328 756.617 562.473 759.928 565.992C753.633 565.087 747.68 558.551 743.034 554.138Z"/><path fill="#EA9834" transform="matrix(2.2952 0 0 2.29448 -941.033 -376.294)" d="M831.326 304.013C832.568 307.818 832.994 311.986 834.233 315.923C835.49 319.92 837.851 316.225 841.122 318.012C841.433 320.056 839.593 323.158 838.621 325.197C844.148 325.547 848.637 325.474 853.746 327.698L853.681 328.473C849.286 330.339 842.622 330.089 840.374 333.765L840.947 335.418C846.509 340.334 850.084 345.963 854.056 352.165C850.861 350.203 837.821 340.956 835.8 340.359C834.609 341.334 833.304 354.457 832.831 357.49C830.24 351.141 828.957 346.084 827.211 339.504C822.754 342.302 819.162 344.389 814.51 346.847C817.17 341.304 818.744 338.71 822.152 333.534C815.768 331.537 808.925 329.755 802.454 327.957C808.157 327.043 815.414 326.534 821.456 325.736C817.915 320.381 816.414 317.417 814.095 311.527C819.714 316.475 820.698 317.762 828.204 319.299L831.326 304.013Z"/><path fill="#EA9834" transform="matrix(2.2952 0 0 2.29448 -941.033 -376.294)" d="M783.93 198.531C787.234 201.457 787.852 211.064 788.357 215.31C792.778 212.361 798.223 206.948 803.16 205.2L803.403 206.186C801.242 211.007 797.47 215.874 794.345 220.232C797.816 220.566 804.155 220.764 806.566 223.127L806.089 224.199C802.79 226.257 797.626 227.134 793.719 228.042C796.263 232.12 797.224 234.455 799.069 238.826C796.404 237.425 791.31 233.8 789.114 234.068C787.258 235.958 787.764 236.55 787.307 239.797C787.005 241.65 785.544 246.251 784.967 248.25C783.147 242.988 782.405 238.87 781.454 233.384C777.811 234.941 772.319 238.214 768.684 240.26C770.352 236.828 774.457 230.941 776.723 227.512C771.324 226.048 764.136 224.745 758.547 223.566C763.664 222.291 771.096 221.537 776.5 220.839C773.494 216.701 772.542 215.203 770.304 210.597C773.651 212.09 777.052 213.46 780.5 214.704C781.951 210.686 783.131 203.006 783.93 198.531Z"/><path fill="#EA9834" transform="matrix(2.2952 0 0 2.29448 -941.033 -376.294)" d="M854.871 239.24C857.243 239.097 858.361 238.837 860.473 240.027C865.43 248.351 843.551 261.944 837.688 265.636C836.318 266.333 835.647 266.503 834.166 266.949L833.16 266.118C832.903 258.475 848.97 243.714 854.871 239.24Z"/><path fill="#EA9834" transform="matrix(2.2952 0 0 2.29448 -941.033 -376.294)" d="M878.384 350.912C885.999 350.056 896.272 353.329 903.376 355.615C898.876 356.922 894.359 358.172 889.828 359.364C884.355 360.198 869.867 361.366 866.814 355.609L867.299 354.275C870.503 351.689 874.412 351.361 878.384 350.912Z"/><path fill="#EA9834" transform="matrix(2.2952 0 0 2.29448 -941.033 -376.294)" d="M865.307 284.584C868.445 290.59 868.204 287.999 873.657 291.781C873.554 293.146 873.434 293.347 872.941 294.661L872.795 295.044C873.745 296.247 874.73 297.421 875.748 298.565L875.138 299.54C869.093 301.029 871.082 300.636 870.168 306.141C867.805 306.056 867.759 305.465 865.539 303.905C864.194 305.49 863.998 305.778 862.108 306.603C860.722 305.576 860.88 304.334 860.392 302.231C858.879 300.74 858.493 300.994 856.285 300.382C856.23 299.08 858.179 297.363 859.283 296.048C858.8 294.556 858.45 293.78 857.785 292.355C860.128 290.441 859.407 290.997 862.716 290.557C864.639 288.638 864.432 287.566 865.307 284.584Z"/><path fill="#EA9834" transform="matrix(2.2952 0 0 2.29448 -941.033 -376.294)" d="M760.797 320.73C773.847 325.188 755.985 339.789 751.225 343.692C749.172 343.823 749.81 344.043 748.091 343.232C745.007 336.905 756.232 324.525 760.797 320.73Z"/><path fill="#EA9834" transform="matrix(2.2952 0 0 2.29448 -941.033 -376.294)" d="M788.495 264.871C793.88 267.865 789.302 273.092 802.1 277.371C798.615 278.795 795.578 280.364 792.234 282.058L790.073 289.881C787.583 287.98 786.884 284.449 785.981 281.468C783.434 279.929 779.859 278.603 777.044 277.453C780.495 276.232 782.606 275.142 785.819 273.498L788.495 264.871Z"/><path fill="#EA9834" transform="matrix(2.2952 0 0 2.29448 -941.033 -376.294)" d="M687.721 189.77C690.64 193.967 691.508 195.412 693.62 200.078C696.714 207.275 698.457 214.98 698.76 222.808C695.421 220.469 693.158 218.816 689.463 216.975C688.567 211.119 688.193 207.866 688.043 201.962C687.905 197.899 687.797 193.835 687.721 189.77Z"/><path fill="#FB8939" transform="matrix(2.2952 0 0 2.29448 -941.033 -376.294)" d="M687.721 189.77C690.64 193.967 691.508 195.412 693.62 200.078C691.48 202.311 691.43 202.952 688.043 201.962C687.905 197.899 687.797 193.835 687.721 189.77Z"/><path fill="#EA9834" transform="matrix(2.2952 0 0 2.29448 -941.033 -376.294)" d="M760.852 173.045C771.12 176.303 766.027 184.695 760.044 189.105C749.774 184.221 753.742 177.961 760.852 173.045Z"/></g></svg>
